<svg version="1.1" id="Camada_1" xmlns="http://www.w3.org/2000/svg" x="0" y="0" viewBox="0 0 100 100" xml:space="preserve"><style>.st1{fill:#fff}</style><circle cx="50" cy="49.4" r="47.5" fill="#667176"/><path class="st1" d="M42.6 32c-2-1.7-5.3-2.6-9.6-2.6-2.2 0-4.1.3-5.7.6-1.6.4-2.9 1.1-3.9 1.9-1.1.8-1.8 1.8-2.3 2.9-.5 1.1-.7 2.2-.7 3.5v1.3c0 .3.2.5.5.5h5.2c.3 0 .5-.2.5-.5.1-1.3.6-2.3 1.3-3.2.9-1 2.6-1.5 5-1.5 1.3 0 2.3.1 3.1.4.8.3 1.5.6 2 1.1.5.5.8.9 1 1.4.2.6.3 1 .3 1.5v1.4c0 .6-.1 1.1-.3 1.6-.2.4-.4.8-.7 1.2-.3.3-.6.6-.9.7-.3.2-.6.3-.7.4-.2.1-.7.2-1.5.6-.8.3-1.7.6-2.8 1-1.1.4-2.2.7-3.3 1.2l-3 1c-1.8.6-3.1 1.7-4.1 3.3-.9 1.5-1.4 3.3-1.4 5.1v3.5c0 .9.2 1.9.5 2.9.3 1.1.9 2 1.9 2.9.9.9 2.2 1.7 3.9 2.2 1.6.6 3.7.9 6.4.9 2.6 0 4.7-.3 6.4-.9 1.6-.6 2.9-1.3 3.9-2.2.9-.9 1.5-1.9 1.9-2.9.3-1.1.5-2 .5-2.9V38.4c-.3-2.5-1.4-4.6-3.4-6.4zm-4.5 30.3c-.9.9-2.6 1.4-5.1 1.4-2.4 0-4.1-.5-5-1.4-.9-.9-1.3-2.3-1.3-4.2 0-.9.2-1.7.6-2.3.4-.7.7-1.1 1.2-1.5.6-.4 1.1-.7 1.7-1 .7-.3 1.6-.6 2.5-.9.7-.2 1.6-.5 2.4-.8.8-.3 1.7-.6 2.4-.8.4-.1.7-.3 1.1-.6.4-.3.7-.6.7-1.1v9.2c.2 1.7-.3 3.1-1.2 4z"/><path id="ParaEmpresas" class="st1" d="M55.2 48.1v-2h.6c.7 0 1.2-.2 1.6-.5.4-.3.6-.7.6-1.3 0-.5-.2-.9-.5-1.2-.3-.3-.8-.4-1.5-.4h-1.6v5.4h.8zm.4-2.7h-.5v-1.9h.6c.4 0 .7.1.9.2.2.2.3.4.3.7 0 .3-.1.6-.3.7-.2.2-.5.3-1 .3zm4.2 2.8c.3 0 .6 0 .8-.1s.4-.3.6-.5l.2.6h.6v-2.8c0-.5-.1-.8-.4-1.1s-.6-.3-1.2-.3c-.2 0-.5 0-.7.1-.3.1-.5.1-.7.3l.3.6c.2-.1.4-.2.6-.2.2-.1.4-.1.6-.1.3 0 .4.1.6.2.1.1.2.3.2.6v.2h-.7c-.6 0-1.1.1-1.4.4-.3.2-.5.5-.5 1 0 .4.1.7.3.9.1.1.4.2.8.2zm.3-.7c-.2 0-.4 0-.5-.1-.1-.1-.2-.2-.2-.4 0-.3.1-.4.3-.6.2-.1.5-.2.9-.2h.5v.4c0 .3-.1.6-.3.7s-.4.2-.7.2zm4 .6V46c0-.4.1-.7.3-.9s.5-.3.8-.3h.4l.1-.8h-.4c-.3 0-.5.1-.7.2-.2.1-.4.3-.5.6l-.2-.8h-.7v4.1h.9zm3.2.1c.3 0 .6 0 .8-.1.2-.1.4-.3.6-.5l.2.6h.6v-2.8c0-.5-.1-.8-.4-1.1s-.7-.3-1.2-.3c-.2 0-.5 0-.7.1-.3.1-.5.1-.7.3l.3.6c.2-.1.4-.2.6-.2s.4-.1.6-.1c.3 0 .4.1.6.2.1.1.2.3.2.6v.2h-.7c-.6 0-1.1.1-1.4.4-.3.2-.5.5-.5 1 0 .4.1.7.3.9.1.1.4.2.8.2zm.3-.7c-.2 0-.4 0-.5-.1s-.2-.2-.2-.4c0-.3.1-.4.3-.6.2-.1.5-.2.9-.2h.5v.4c0 .3-.1.6-.3.7s-.4.2-.7.2zm-10.3 8.7v-.7h-2.2v-1.7h2V53h-2v-1.5h2.2v-.7h-3.1v5.4h3.1zm2 0v-2c0-.5.1-.9.2-1.1.2-.2.4-.3.7-.3.3 0 .4.1.6.2.1.2.2.4.2.7v2.5h.9V54c0-.4.1-.8.2-1 .2-.2.4-.3.7-.3.3 0 .4.1.6.2.1.2.2.4.2.7v2.5h.9v-2.7c0-.5-.1-.9-.3-1.1s-.6-.4-1.1-.4c-.3 0-.5.1-.8.2-.2.1-.4.3-.5.5h-.1c-.2-.4-.6-.6-1.2-.6-.3 0-.5.1-.7.2-.2.1-.4.3-.5.5l-.1-.5h-.7v4.1h.8zm7.2 1.8v-1.7c0-.1 0-.3-.1-.6h.1c.3.4.7.6 1.2.6s.9-.2 1.2-.6.4-.9.4-1.6c0-.7-.1-1.2-.4-1.6-.3-.4-.7-.6-1.2-.6s-.9.2-1.2.6c-.1-.3-.1-.5-.1-.5h-.7v6h.8zm1-2.4c-.4 0-.6-.1-.8-.3-.2-.2-.2-.6-.2-1.1V54c0-.4.1-.8.2-1 .2-.2.4-.3.8-.3.3 0 .5.1.7.4.2.2.2.6.2 1 0 .5-.1.8-.2 1.1-.2.3-.4.4-.7.4zm3.7.6v-2.1c0-.4.1-.7.3-.9.2-.2.5-.3.8-.3h.4l.1-.8h-.4c-.3 0-.5.1-.7.2-.2.1-.4.3-.5.6l-.2-.8h-.7v4.1h.9zm4 .1c.3 0 .5 0 .7-.1.2 0 .4-.1.6-.2v-.7c-.2.1-.5.2-.7.2-.2 0-.4.1-.7.1-.4 0-.7-.1-.9-.3s-.3-.5-.3-.9h2.7v-.5c0-.6-.2-1-.5-1.4-.3-.3-.7-.5-1.3-.5-.6 0-1 .2-1.4.6s-.5.9-.5 1.6c0 .6.2 1.2.5 1.5.7.4 1.2.6 1.8.6zm.8-2.6h-1.9c0-.3.1-.6.3-.8.2-.2.4-.3.7-.3.3 0 .5.1.6.3.2.3.3.5.3.8zm2.9 2.6c.5 0 1-.1 1.2-.3.3-.2.4-.5.4-.9 0-.2 0-.4-.1-.5-.1-.1-.2-.3-.3-.4-.2-.1-.4-.2-.7-.4-.4-.2-.7-.3-.8-.4-.1-.1-.2-.2-.2-.3 0-.3.2-.4.7-.4.3 0 .7.1 1.1.3l.3-.7c-.4-.2-.9-.3-1.4-.3-.5 0-.9.1-1.2.3-.3.2-.4.5-.4.8 0 .3.1.5.2.7.2.2.5.4 1 .5l.6.3c.1.1.2.1.3.2.1.1.1.2.1.3 0 .3-.3.5-.8.5-.4 0-.9-.1-1.3-.3v.7c.3.2.7.3 1.3.3zm3.6 0c.3 0 .6 0 .8-.1.2-.1.4-.3.6-.5l.2.6h.6v-2.8c0-.5-.1-.8-.4-1.1-.3-.2-.7-.3-1.2-.3-.2 0-.5 0-.7.1s-.5.1-.7.3l.3.6c.2-.1.4-.2.6-.2s.4-.1.6-.1c.3 0 .4.1.6.2.1.1.2.3.2.6v.2h-.7c-.6 0-1.1.1-1.4.4-.3.2-.5.5-.5 1 0 .4.1.7.3.9s.4.2.8.2zm.2-.7c-.2 0-.4 0-.5-.1-.1-.1-.2-.2-.2-.4 0-.3.1-.4.3-.6.2-.1.5-.2.9-.2h.5v.4c0 .3-.1.6-.3.7-.1.1-.3.2-.7.2zm4.2.7c.5 0 1-.1 1.2-.3.3-.2.4-.5.4-.9 0-.2 0-.4-.1-.5-.1-.1-.2-.3-.3-.4-.2-.1-.4-.2-.7-.4-.4-.2-.7-.3-.8-.4-.1-.1-.2-.2-.2-.3 0-.3.2-.4.7-.4.3 0 .7.1 1.1.3l.3-.7c-.4-.2-.9-.3-1.4-.3-.5 0-.9.1-1.2.3-.3.2-.4.5-.4.8 0 .3.1.5.2.7.2.2.5.4 1 .5l.6.3c.1.1.2.1.3.2.1.1.1.2.1.3 0 .3-.3.5-.8.5-.4 0-.9-.1-1.3-.3v.7c.4.2.8.3 1.3.3z"/><path id="Rectangle" class="st1" d="M49 30.9h1.4v37.5H49z"/></svg>