<svg version="1.1" id="Layer_1" xmlns="http://www.w3.org/2000/svg" x="0" y="0" viewBox="0 0 40 40" xml:space="preserve"><style>.st1{fill:#338af3}</style><circle cx="20" cy="20" r="20" fill="#f0f0f0"/><path class="st1" d="M20 0C12.1 0 5.2 4.6 2 11.3h36C34.8 4.6 27.9 0 20 0zM20 40c7.9 0 14.8-4.6 18-11.3H2C5.2 35.4 12.1 40 20 40z"/><path fill="#ffda44" d="M26 20l-2.5 1.1 1.3 2.4-2.6-.5-.4 2.7-1.8-2-1.8 2-.4-2.7-2.6.5 1.3-2.4L14 20l2.5-1.1-1.3-2.4 2.6.5.4-2.7 1.8 2 1.8-2 .4 2.7 2.6-.5-1.3 2.4z"/></svg>