<svg xmlns="http://www.w3.org/2000/svg" width="100" height="100" fill="none"><circle cx="50" cy="50" r="50" fill="#657176"/><path fill="#fff" d="M79.102 22.062c-1.94-4.487-4.73-7.372-8.294-8.565-2.776-.931-5.942-.827-9.473.295-1.602.513-3.275 1.236-5.024 2.167-.224.12-.452.243-.68.376-.071.038-.143.076-.214.119-.157.085-.314.18-.47.266-.229.133-.462.261-.685.394-10.253 5.804-19.859 11.194-26.423 13.366-1.15.485-2.196.875-3.203 1.25-2.34.87-4.245 1.574-5.78 2.957-.442.39-.851.841-1.236 1.369-1.112 1.525-1.987 3.679-2.667 6.949-.309 1.473-.546 3.218-.717 5.152a50.701 50.701 0 0 0-.12 1.555c-.004.042-.004.08-.009.123v.024a78.074 78.074 0 0 0-.147 5.162c.01 4.458.37 9.25 1.174 13.627.637 3.48 1.545 6.702 2.785 9.278 1.944 4.483 4.734 7.368 8.3 8.566.441.147.883.266 1.344.36 3.746.785 8.157-.17 13.143-2.823.228-.123.456-.247.684-.375.072-.043.148-.08.22-.124.151-.085.313-.175.465-.266.228-.128.46-.257.684-.39.067-.038.133-.07.2-.114 10.176-5.756 19.702-11.098 26.223-13.256a63.4 63.4 0 0 1 3.061-1.198c.053-.014.095-.038.143-.052 2.338-.865 4.24-1.574 5.775-2.952a8.51 8.51 0 0 0 1.231-1.36c.005-.004.005-.009.005-.014 1.112-1.525 1.991-3.679 2.666-6.944.395-1.887.68-4.22.846-6.82v-.03c.029-.484.057-.979.076-1.478a78.846 78.846 0 0 0 .072-3.683c-.015-8.005-1.155-17.088-3.955-22.91Zm2.719 34.874c-.47 2.258-1.036 3.974-1.711 5.314-.466.941-.994 1.702-1.578 2.33-1.602 1.725-3.646 2.48-6.236 3.445-.115.043-.229.086-.348.134a58.85 58.85 0 0 0-2.856 1.117c-6.564 2.177-16.156 7.552-26.395 13.356-.109.062-.213.124-.323.185-.223.129-.456.262-.684.39-.067.043-.138.076-.204.119-.157.086-.319.18-.471.261-.228.129-.461.252-.684.362-5.42 2.842-10.14 3.612-14.032 2.31-3.489-1.17-6.231-4.002-8.142-8.428-1.226-2.552-2.134-5.732-2.766-9.173a66.405 66.405 0 0 1-.41-2.52 81.188 81.188 0 0 1-.746-9.506 98.651 98.651 0 0 1 0-3.745c.02-.86.058-1.702.105-2.52.043-.755.09-1.487.157-2.2.162-1.916.409-3.646.713-5.105.47-2.248 1.027-3.955 1.702-5.3.47-.946.998-1.711 1.582-2.339l.005-.004c1.602-1.726 3.646-2.481 6.236-3.446 1.008-.376 2.058-.76 3.204-1.25 6.63-2.201 16.356-7.667 26.718-13.537.223-.129.456-.262.684-.39.066-.043.138-.076.204-.119.157-.086.319-.18.47-.261.23-.129.462-.252.685-.362 1.745-.922 3.413-1.616 5.01-2.105 2.814-.856 5.39-1.046 7.705-.561.452.09.884.209 1.317.351 3.489 1.175 6.231 4.008 8.142 8.433 2.6 5.409 3.764 13.641 3.921 21.19a88.61 88.61 0 0 1 .01 2.965c0 .267-.005.528-.01.79a70.836 70.836 0 0 1-.076 2.053c-.147 2.975-.46 5.651-.898 7.766Z"/><path fill="#fff" d="M58.022 85.93c-.214 0-.433 0-.651-.004-2.505-.038-5.1-.071-7.591-.703l-.176-.043c-.185-.048-.37-.095-.566-.148a50.2 50.2 0 0 1-1.982-.537 27.527 27.527 0 0 1-1.949-.646 16.332 16.332 0 0 1-1.492-.618 2.613 2.613 0 0 1-.266-.124c-.048-.019-.1-.047-.157-.076l-.095-.047a3.898 3.898 0 0 1-.195-.105 3.652 3.652 0 0 1-.266-.142c-.219-.11-.438-.233-.66-.357-4.707-2.633-9.25-6.645-13.148-11.593a897.394 897.394 0 0 0-1.654-2.086l-.585-.742a450.79 450.79 0 0 1-1.369-1.744c-.171-.219-.518-.062-1.027.204-.499.261-1.069.556-1.397.119l.204-.152c.186.247.547.085 1.075-.195.484-.252 1.031-.537 1.35-.133.456.584.912 1.164 1.368 1.744l.585.742c.537.675 1.079 1.36 1.654 2.086 3.879 4.92 8.399 8.908 13.071 11.527.219.123.438.242.661.356.09.053.176.1.266.143.067.038.124.066.186.095l.095.047c.052.024.1.053.152.072.095.047.176.09.261.123.47.224.965.428 1.479.614.565.213 1.178.418 1.934.641a53.3 53.3 0 0 0 1.977.537c.19.053.38.1.561.148l.176.042c2.462.628 5.038.661 7.53.7 4.063.056 7.105-.433 9.862-1.598 2.529-1.065 4.492-2.23 6.013-3.546 3.688-3.222 8.16-7.657 10.01-13.409.922-2.847 1.15-5.893 1.26-8.764.042-1.055.052-1.902.033-2.662-.029-1.369-.162-2.567-.404-3.665a30.758 30.758 0 0 1-.328-1.678 43.148 43.148 0 0 0-.295-1.525l-.138-.57a7.022 7.022 0 0 0-.152-.514 7.38 7.38 0 0 0-.3-.822c-.033-.081-.066-.153-.1-.229l-.032-.07c-.02-.048-.043-.091-.062-.134l-.1-.219c-.02-.042-.043-.085-.062-.128-.171-.366-.342-.727-.508-1.093-.077-.157-.148-.319-.22-.475-.208-.452-.417-.894-.622-1.34l-.784-1.698c-1.958-4.263-3.812-8.29-6.165-12.539-.409-.732-.836-1.478-1.269-2.215-.095-.166-.19-.332-.29-.494l-.062-.11c-.218-.375-.437-.74-.65-1.116l-.077-.129a443.1 443.1 0 0 0-.775-1.33c-1.906-3.247-4.007-6.389-8.66-9.108a8.002 8.002 0 0 0-.832-.418c-.119-.052-.242-.1-.37-.152a11.089 11.089 0 0 0-1.004-.323c-3.493-.937-7.99-.323-11.146.361-.97.21-2.281.685-3.912 1.407a64.84 64.84 0 0 0-1.492.694c-.518.252-1.036.513-1.56.775-.565.294-1.135.594-1.677.889-1.507.831-2.88 1.64-3.864 2.281-2.919 1.887-5.41 2.871-7.814 3.822-.547.213-1.089.427-1.63.65-.552.224-1.056.443-1.54.671-.6.276-1.056.494-1.48.718a26.105 26.105 0 0 0-4.302 2.838c-3.91 3.155-6.396 8.222-6.639 13.56a20.779 20.779 0 0 0 .509 5.561c.005.038.014.067.019.096.005.028.014.056.019.085l.028.119c.124.513.266 1.027.428 1.526l.005.023c.066.214.138.423.214.637.1.28.2.561.309.842.08.214.161.418.252.618.1.237.2.47.304.708a.19.19 0 0 1 .028.062c.219.499-.237 1.088-.675 1.658-.404.518-.817 1.056-.608 1.398l-.219.133c-.304-.494.167-1.103.623-1.692.4-.514.813-1.046.642-1.407l-.015-.033c-.109-.243-.209-.485-.313-.723-.09-.204-.171-.413-.257-.623a23.688 23.688 0 0 1-.528-1.473l-.014-.014-.005-.048a20.173 20.173 0 0 1-.427-1.53l-.048-.21c-.005-.033-.014-.066-.019-.1a21.007 21.007 0 0 1-.513-5.622c.247-5.41 2.766-10.552 6.735-13.751a26.657 26.657 0 0 1 4.35-2.866c.427-.229.888-.452 1.487-.723.49-.228.998-.447 1.55-.675.541-.223 1.083-.437 1.63-.656 2.395-.946 4.872-1.925 7.762-3.807.988-.646 2.367-1.46 3.883-2.291.542-.3 1.112-.594 1.683-.894a95.497 95.497 0 0 1 1.563-.78 44.47 44.47 0 0 1 1.498-.698c1.644-.727 2.975-1.207 3.964-1.421 3.184-.69 7.724-1.307 11.265-.357.328.086.675.2 1.031.333.133.052.257.105.38.157.31.133.59.276.86.432 4.711 2.753 6.826 5.918 8.751 9.198.262.442.518.889.775 1.33l.076.13c.214.375.428.74.651 1.116l.062.11c.1.166.2.332.29.498.433.733.86 1.479 1.27 2.216 2.357 4.258 4.21 8.289 6.174 12.557l.784 1.697c.204.442.413.89.623 1.34.07.157.142.32.218.476.171.366.338.727.513 1.098l.058.128.057.124.042.09c.024.048.048.095.067.143l.033.071c.034.08.072.157.105.238.11.252.209.532.304.846.057.176.11.352.157.527l.138.575c.114.51.209 1.032.3 1.536.099.546.199 1.117.327 1.668.247 1.117.385 2.334.414 3.717.019.77.004 1.621-.034 2.68-.109 2.886-.337 5.957-1.269 8.832-1.868 5.813-6.374 10.281-10.086 13.523-1.54 1.336-3.527 2.51-6.08 3.589-2.647 1.107-5.541 1.616-9.32 1.616Z" opacity=".4"/><path fill="#fff" d="M82.895 48.837a29.46 29.46 0 0 0-.105-1.725c-.023-.347-.061-.69-.104-1.036a32.141 32.141 0 0 0-.547-3.337c-1.483-6.916-5.062-13.066-10.034-17.758a34.311 34.311 0 0 0-16.099-8.565 11.215 11.215 0 0 0-.385-.08 34.547 34.547 0 0 0-11.945-.4c-7.585 1.07-14.392 4.625-19.554 9.82a34.31 34.31 0 0 0-6.683 9.497 34.005 34.005 0 0 0-3.275 12.91 27.237 27.237 0 0 0-.047 1.535c-.005.047-.005.095-.005.142v.152c0 .975.043 1.935.124 2.886a33.96 33.96 0 0 0 .613 4.206c.01.057.019.114.038.162a33.259 33.259 0 0 0 1.735 5.637v-1.421a33.497 33.497 0 0 1-1.764-7.515c-.005-.014-.005-.028-.005-.052a29.604 29.604 0 0 1-.2-2.69 25.79 25.79 0 0 1-.023-1.212c0-.614.014-1.227.052-1.835a33.632 33.632 0 0 1 3.94-14.108 33.984 33.984 0 0 1 6.997-9.016 33.815 33.815 0 0 1 22.906-8.932 33.21 33.21 0 0 1 6.431.618c.133.024.261.053.394.076.314.067.628.133.942.21a33.866 33.866 0 0 1 16.835 9.7 33.842 33.842 0 0 1 9.046 19.332c.142 1.217.218 2.462.223 3.722.005.076.005.156.005.237 0 4.32-.808 8.451-2.291 12.254-.214.57-.457 1.131-.709 1.683 0 .004 0 .009-.004.014-.31.675-.637 1.34-.989 1.996a31.642 31.642 0 0 1-1.45 2.453c-6.046 9.32-16.536 15.495-28.447 15.495a35.62 35.62 0 0 1-3.36-.161 32.722 32.722 0 0 1-2.083-.276c-.332-.052-.66-.11-.988-.18-.129-.02-.257-.048-.39-.072-.314-.067-.628-.133-.941-.21-8.527-2.005-15.824-7.238-20.515-14.335a33.721 33.721 0 0 1-1.521-2.519 37.396 37.396 0 0 1-.998-2.001h-.561c.309.68.637 1.345.989 2.001.456.86.95 1.702 1.483 2.52 4.653 7.19 11.925 12.543 20.452 14.7a28.92 28.92 0 0 0 1.317.304 34.545 34.545 0 0 0 7.12.742c12.601 0 23.638-6.806 29.627-16.94a31.648 31.648 0 0 0 1.45-2.719 34.117 34.117 0 0 0 3.327-14.578v-.17c-.005-.395-.01-.776-.024-1.16Z"/><path fill="#fff" d="M34.636 52.78c-.347-1.055-.893-1.934-1.625-2.619-.732-.684-1.678-1.193-2.819-1.52-1.122-.32-2.476-.48-4.035-.48H12.838c-.722 0-1.136.413-1.136 1.135V67.51c0 .728.414 1.136 1.136 1.136h13.319c.384 0 .755-.01 1.116-.028 1.094-.057 2.073-.205 2.919-.447 1.14-.328 2.087-.837 2.819-1.521.732-.68 1.278-1.569 1.625-2.619.338-1.04.514-2.282.514-3.689v-3.868c0-1.407-.176-2.653-.514-3.694Zm-4.406 7.192c0 .803-.076 1.487-.219 2.034-.137.518-.36.932-.675 1.24-.318.305-.736.528-1.26.67-.541.144-1.22.215-2.034.215h-9.335c-.047 0-.071-.005-.076-.005-.005-.005-.01-.029-.01-.08V52.798c0-.076.015-.104.015-.104s.019-.01.071-.01h9.335c.804 0 1.488.072 2.035.214.518.143.94.37 1.26.67.313.31.537.723.674 1.24.143.543.219 1.227.219 2.035v3.128ZM58.692 48.16H46.167c-1.459 0-2.718.143-3.745.423-1.046.285-1.916.751-2.581 1.374-.67.627-1.165 1.45-1.469 2.443-.3.97-.451 2.167-.451 3.555v4.896c0 1.388.152 2.59.451 3.57.31 1.003.803 1.83 1.469 2.457.665.628 1.535 1.084 2.586 1.364 1.022.271 2.281.41 3.745.41h12.525c.594 0 .936-.334.936-.909V65.04c0-.58-.342-.908-.936-.908H46.253c-.713 0-1.307-.057-1.764-.176-.432-.11-.779-.295-1.036-.551-.256-.252-.437-.609-.537-1.06-.11-.48-.161-1.089-.161-1.802v-.2h15.8c.574 0 .907-.332.907-.907v-2.249c0-.57-.338-.907-.908-.907H42.745c0-.713.057-1.322.162-1.802.1-.447.28-.803.537-1.06.256-.257.603-.442 1.036-.551.461-.119 1.055-.176 1.768-.176h12.44c.593 0 .936-.333.936-.908v-2.714c.004-.575-.338-.908-.932-.908Zm29.593.367c-.066-.166-.233-.366-.675-.366h-3.73c-.547 0-.799.29-.903.518l-8.223 15.305c-.033.057-.052.057-.067.057h-.142c-.072 0-.076-.014-.095-.052l-8.342-15.32c-.1-.175-.21-.299-.333-.38-.133-.09-.318-.133-.57-.133h-3.589c-.466 0-.642.2-.703.366-.076.2-.048.433.085.709l9.45 17.106c.503.927 1.007 1.53 1.544 1.844.528.31 1.193.466 1.978.466h1.649c.656 0 1.245-.157 1.745-.47.503-.314.988-.918 1.492-1.84l9.34-17.116c.138-.257.166-.49.09-.694ZM34.87 38.244a1.889 1.889 0 0 0-.548-.88c-.256-.223-.599-.394-1.022-.503-.427-.11-.955-.157-1.577-.157h-5.234v-2.5c0-.205-.104-.31-.309-.31h-1.369c-.213 0-.323.105-.323.31v7.334c0 .508.057.936.166 1.288.115.356.295.656.552.88.252.227.594.394 1.017.493.418.105.946.153 1.583.153h3.912c.618 0 1.145-.053 1.578-.153.423-.104.77-.266 1.022-.494.256-.223.442-.523.546-.88.114-.351.171-.784.171-1.287v-2.006c0-.5-.057-.932-.166-1.288Zm-1.817 2.904c0 .295-.019.542-.066.741a.997.997 0 0 1-.247.466c-.12.119-.271.2-.466.252-.2.052-.452.076-.751.076h-3.517c-.295 0-.542-.024-.742-.076a1.002 1.002 0 0 1-.466-.252.997.997 0 0 1-.247-.466 3.294 3.294 0 0 1-.066-.741v-2.771h5.038c.304 0 .551.023.75.076a.998.998 0 0 1 .467.252c.118.119.194.275.247.475.047.2.066.442.066.732v1.236Zm13.917-2.905a1.888 1.888 0 0 0-.546-.88c-.257-.223-.599-.394-1.027-.503-.423-.11-.95-.157-1.573-.157h-3.945c-.637 0-1.16.052-1.588.157-.418.11-.76.276-1.017.504a1.889 1.889 0 0 0-.547.88c-.113.356-.17.788-.17 1.287v2.006c0 .509.056.937.17 1.288.115.357.29.656.547.88.257.228.6.394 1.017.494.423.104.951.152 1.588.152h3.945c.618 0 1.145-.052 1.573-.152.428-.105.775-.266 1.027-.494.257-.224.442-.523.547-.88.114-.352.17-.784.17-1.288v-2.006c0-.499-.056-.931-.17-1.288Zm-1.81 2.947c0 .295-.02.547-.067.742a.997.997 0 0 1-.247.465.99.99 0 0 1-.466.252c-.2.053-.451.076-.756.076h-3.55c-.295 0-.547-.023-.742-.076a1 1 0 0 1-.465-.252.955.955 0 0 1-.248-.465 3.266 3.266 0 0 1-.066-.742v-1.326c0-.285.019-.528.066-.722a1.01 1.01 0 0 1 .248-.476.962.962 0 0 1 .465-.252 3.23 3.23 0 0 1 .742-.071h3.55c.31 0 .556.024.756.071a.962.962 0 0 1 .466.252c.119.124.195.28.247.476.048.194.067.437.067.722v1.326Zm5.314-7.295h-1.37c-.204 0-.308.104-.308.308v9.85c0 .203.104.308.309.308h1.369c.204 0 .309-.105.309-.309v-9.849c0-.204-.105-.309-.31-.309Zm12.443 4.349a1.935 1.935 0 0 0-.55-.88c-.258-.223-.6-.394-1.023-.503-.428-.11-.955-.157-1.578-.157h-5.214v-2.5c0-.205-.105-.31-.309-.31h-1.369c-.204 0-.309.105-.309.31v9.848c0 .204.105.309.31.309h1.368c.204 0 .309-.105.309-.309v-5.58h5.114c.295 0 .537.024.723.076.19.052.332.133.442.252a.9.9 0 0 1 .214.475c.042.2.057.442.057.732v4.045c0 .204.104.309.309.309h1.369c.204 0 .309-.105.309-.309v-4.52c-.01-.5-.062-.932-.172-1.288Zm11.242-.001a1.935 1.935 0 0 0-.552-.88c-.256-.223-.599-.394-1.022-.503-.427-.11-.955-.157-1.578-.157h-6.022c-.171 0-.252.08-.252.252v1.174c0 .171.081.252.252.252h5.832c.31 0 .556.019.751.071.195.048.347.12.461.214.11.095.19.224.238.385.047.157.071.347.071.57v.267h-5.684c-.41 0-.751.043-1.027.119-.271.08-.49.2-.66.356a1.213 1.213 0 0 0-.353.58c-.07.223-.109.485-.109.775v.67c0 .342.038.642.11.889.066.252.185.456.351.613.166.157.39.276.66.356.276.076.619.12 1.027.12h6.64c.205 0 .371-.015.504-.053a.557.557 0 0 0 .314-.176.771.771 0 0 0 .171-.342c.029-.143.048-.328.048-.547v-3.712c-.01-.504-.067-.936-.171-1.293Zm-1.83 4.102c0 .18-.029.304-.09.376-.062.066-.162.104-.314.104h-4.706c-.285 0-.485-.057-.603-.176-.12-.118-.176-.304-.176-.551v-.29c0-.219.057-.395.175-.509.12-.118.319-.175.604-.175h5.11v1.221Z"/><path fill="#fff" d="M34.636 52.78c-.347-1.055-.893-1.934-1.625-2.619-.732-.684-1.678-1.193-2.819-1.52-1.122-.32-2.476-.48-4.035-.48H12.838c-.722 0-1.136.413-1.136 1.135V67.51c0 .728.414 1.136 1.136 1.136h13.319c.384 0 .755-.01 1.116-.028 1.094-.057 2.073-.205 2.919-.447 1.14-.328 2.087-.837 2.819-1.521.732-.68 1.278-1.569 1.625-2.619.338-1.04.514-2.282.514-3.689v-3.868c0-1.407-.176-2.653-.514-3.694Zm-4.406 7.192c0 .803-.076 1.487-.219 2.034-.137.518-.36.932-.675 1.24-.318.305-.736.528-1.26.67-.541.144-1.22.215-2.034.215h-9.335c-.047 0-.071-.005-.076-.005-.005-.005-.01-.029-.01-.08V52.798c0-.076.015-.104.015-.104s.019-.01.071-.01h9.335c.804 0 1.488.072 2.035.214.518.143.94.37 1.26.67.313.31.537.723.674 1.24.143.543.219 1.227.219 2.035v3.128ZM58.692 48.16H46.167c-1.459 0-2.718.143-3.745.423-1.046.285-1.916.751-2.581 1.374-.67.627-1.165 1.45-1.469 2.443-.3.97-.451 2.167-.451 3.555v4.896c0 1.388.152 2.59.451 3.57.31 1.003.803 1.83 1.469 2.457.665.628 1.535 1.084 2.586 1.364 1.022.271 2.281.41 3.745.41h12.525c.594 0 .936-.334.936-.909V65.04c0-.58-.342-.908-.936-.908H46.253c-.713 0-1.307-.057-1.764-.176-.432-.11-.779-.295-1.036-.551-.256-.252-.437-.609-.537-1.06-.11-.48-.161-1.089-.161-1.802v-.2h15.8c.574 0 .907-.332.907-.907v-2.249c0-.57-.338-.907-.908-.907H42.745c0-.713.057-1.322.162-1.802.1-.447.28-.803.537-1.06.256-.257.603-.442 1.036-.551.461-.119 1.055-.176 1.768-.176h12.44c.593 0 .936-.333.936-.908v-2.714c.004-.575-.338-.908-.932-.908Zm29.593.367c-.066-.166-.233-.366-.675-.366h-3.73c-.547 0-.799.29-.903.518l-8.223 15.305c-.033.057-.052.057-.067.057h-.142c-.072 0-.076-.014-.095-.052l-8.342-15.32c-.1-.175-.21-.299-.333-.38-.133-.09-.318-.133-.57-.133h-3.589c-.466 0-.642.2-.703.366-.076.2-.048.433.085.709l9.45 17.106c.503.927 1.007 1.53 1.544 1.844.528.31 1.193.466 1.978.466h1.649c.656 0 1.245-.157 1.745-.47.503-.314.988-.918 1.492-1.84l9.34-17.116c.138-.257.166-.49.09-.694ZM34.87 38.244a1.889 1.889 0 0 0-.548-.88c-.256-.223-.599-.394-1.022-.503-.427-.11-.955-.157-1.577-.157h-5.234v-2.5c0-.205-.104-.31-.309-.31h-1.369c-.213 0-.323.105-.323.31v7.334c0 .508.057.936.166 1.288.115.356.295.656.552.88.252.227.594.394 1.017.493.418.105.946.153 1.583.153h3.912c.618 0 1.145-.053 1.578-.153.423-.104.77-.266 1.022-.494.256-.223.442-.523.546-.88.114-.351.171-.784.171-1.287v-2.006c0-.5-.057-.932-.166-1.288Zm-1.817 2.904c0 .295-.019.542-.066.741a.997.997 0 0 1-.247.466c-.12.119-.271.2-.466.252-.2.052-.452.076-.751.076h-3.517c-.295 0-.542-.024-.742-.076a1.002 1.002 0 0 1-.466-.252.997.997 0 0 1-.247-.466 3.294 3.294 0 0 1-.066-.741v-2.771h5.038c.304 0 .551.023.75.076a.998.998 0 0 1 .467.252c.118.119.194.275.247.475.047.2.066.442.066.732v1.236Zm13.917-2.905a1.888 1.888 0 0 0-.546-.88c-.257-.223-.599-.394-1.027-.503-.423-.11-.95-.157-1.573-.157h-3.945c-.637 0-1.16.052-1.588.157-.418.11-.76.276-1.017.504a1.889 1.889 0 0 0-.547.88c-.113.356-.17.788-.17 1.287v2.006c0 .509.056.937.17 1.288.115.357.29.656.547.88.257.228.6.394 1.017.494.423.104.951.152 1.588.152h3.945c.618 0 1.145-.052 1.573-.152.428-.105.775-.266 1.027-.494.257-.224.442-.523.547-.88.114-.352.17-.784.17-1.288v-2.006c0-.499-.056-.931-.17-1.288Zm-1.81 2.947c0 .295-.02.547-.067.742a.997.997 0 0 1-.247.465.99.99 0 0 1-.466.252c-.2.053-.451.076-.756.076h-3.55c-.295 0-.547-.023-.742-.076a1 1 0 0 1-.465-.252.955.955 0 0 1-.248-.465 3.266 3.266 0 0 1-.066-.742v-1.326c0-.285.019-.528.066-.722a1.01 1.01 0 0 1 .248-.476.962.962 0 0 1 .465-.252 3.23 3.23 0 0 1 .742-.071h3.55c.31 0 .556.024.756.071a.962.962 0 0 1 .466.252c.119.124.195.28.247.476.048.194.067.437.067.722v1.326Zm5.314-7.295h-1.37c-.204 0-.308.104-.308.308v9.85c0 .203.104.308.309.308h1.369c.204 0 .309-.105.309-.309v-9.849c0-.204-.105-.309-.31-.309Zm12.443 4.349a1.935 1.935 0 0 0-.55-.88c-.258-.223-.6-.394-1.023-.503-.428-.11-.955-.157-1.578-.157h-5.214v-2.5c0-.205-.105-.31-.309-.31h-1.369c-.204 0-.309.105-.309.31v9.848c0 .204.105.309.31.309h1.368c.204 0 .309-.105.309-.309v-5.58h5.114c.295 0 .537.024.723.076.19.052.332.133.442.252a.9.9 0 0 1 .214.475c.042.2.057.442.057.732v4.045c0 .204.104.309.309.309h1.369c.204 0 .309-.105.309-.309v-4.52c-.01-.5-.062-.932-.172-1.288Zm11.242-.001a1.935 1.935 0 0 0-.552-.88c-.256-.223-.599-.394-1.022-.503-.427-.11-.955-.157-1.578-.157h-6.022c-.171 0-.252.08-.252.252v1.174c0 .171.081.252.252.252h5.832c.31 0 .556.019.751.071.195.048.347.12.461.214.11.095.19.224.238.385.047.157.071.347.071.57v.267h-5.684c-.41 0-.751.043-1.027.119-.271.08-.49.2-.66.356a1.213 1.213 0 0 0-.353.58c-.07.223-.109.485-.109.775v.67c0 .342.038.642.11.889.066.252.185.456.351.613.166.157.39.276.66.356.276.076.619.12 1.027.12h6.64c.205 0 .371-.015.504-.053a.557.557 0 0 0 .314-.176.771.771 0 0 0 .171-.342c.029-.143.048-.328.048-.547v-3.712c-.01-.504-.067-.936-.171-1.293Zm-1.83 4.102c0 .18-.029.304-.09.376-.062.066-.162.104-.314.104h-4.706c-.285 0-.485-.057-.603-.176-.12-.118-.176-.304-.176-.551v-.29c0-.219.057-.395.175-.509.12-.118.319-.175.604-.175h5.11v1.221Z"/><path fill="#fff" d="M34.636 52.78c-.347-1.055-.893-1.934-1.625-2.619-.732-.684-1.678-1.193-2.819-1.52-1.122-.32-2.476-.48-4.035-.48H12.838c-.722 0-1.136.413-1.136 1.135V67.51c0 .728.414 1.136 1.136 1.136h13.319c.384 0 .755-.01 1.116-.028 1.094-.057 2.073-.205 2.919-.447 1.14-.328 2.087-.837 2.819-1.521.732-.68 1.278-1.569 1.625-2.619.338-1.04.514-2.282.514-3.689v-3.868c0-1.407-.176-2.653-.514-3.694Zm-4.406 7.192c0 .803-.076 1.487-.219 2.034-.137.518-.36.932-.675 1.24-.318.305-.736.528-1.26.67-.541.144-1.22.215-2.034.215h-9.335c-.047 0-.071-.005-.076-.005-.005-.005-.01-.029-.01-.08V52.798c0-.076.015-.104.015-.104s.019-.01.071-.01h9.335c.804 0 1.488.072 2.035.214.518.143.94.37 1.26.67.313.31.537.723.674 1.24.143.543.219 1.227.219 2.035v3.128ZM58.692 48.16H46.167c-1.459 0-2.718.143-3.745.423-1.046.285-1.916.751-2.581 1.374-.67.627-1.165 1.45-1.469 2.443-.3.97-.451 2.167-.451 3.555v4.896c0 1.388.152 2.59.451 3.57.31 1.003.803 1.83 1.469 2.457.665.628 1.535 1.084 2.586 1.364 1.022.271 2.281.41 3.745.41h12.525c.594 0 .936-.334.936-.909V65.04c0-.58-.342-.908-.936-.908H46.253c-.713 0-1.307-.057-1.764-.176-.432-.11-.779-.295-1.036-.551-.256-.252-.437-.609-.537-1.06-.11-.48-.161-1.089-.161-1.802v-.2h15.8c.574 0 .907-.332.907-.907v-2.249c0-.57-.338-.907-.908-.907H42.745c0-.713.057-1.322.162-1.802.1-.447.28-.803.537-1.06.256-.257.603-.442 1.036-.551.461-.119 1.055-.176 1.768-.176h12.44c.593 0 .936-.333.936-.908v-2.714c.004-.575-.338-.908-.932-.908Zm29.593.367c-.066-.166-.233-.366-.675-.366h-3.73c-.547 0-.799.29-.903.518l-8.223 15.305c-.033.057-.052.057-.067.057h-.142c-.072 0-.076-.014-.095-.052l-8.342-15.32c-.1-.175-.21-.299-.333-.38-.133-.09-.318-.133-.57-.133h-3.589c-.466 0-.642.2-.703.366-.076.2-.048.433.085.709l9.45 17.106c.503.927 1.007 1.53 1.544 1.844.528.31 1.193.466 1.978.466h1.649c.656 0 1.245-.157 1.745-.47.503-.314.988-.918 1.492-1.84l9.34-17.116c.138-.257.166-.49.09-.694ZM34.87 38.244a1.889 1.889 0 0 0-.548-.88c-.256-.223-.599-.394-1.022-.503-.427-.11-.955-.157-1.577-.157h-5.234v-2.5c0-.205-.104-.31-.309-.31h-1.369c-.213 0-.323.105-.323.31v7.334c0 .508.057.936.166 1.288.115.356.295.656.552.88.252.227.594.394 1.017.493.418.105.946.153 1.583.153h3.912c.618 0 1.145-.053 1.578-.153.423-.104.77-.266 1.022-.494.256-.223.442-.523.546-.88.114-.351.171-.784.171-1.287v-2.006c0-.5-.057-.932-.166-1.288Zm-1.817 2.904c0 .295-.019.542-.066.741a.997.997 0 0 1-.247.466c-.12.119-.271.2-.466.252-.2.052-.452.076-.751.076h-3.517c-.295 0-.542-.024-.742-.076a1.002 1.002 0 0 1-.466-.252.997.997 0 0 1-.247-.466 3.294 3.294 0 0 1-.066-.741v-2.771h5.038c.304 0 .551.023.75.076a.998.998 0 0 1 .467.252c.118.119.194.275.247.475.047.2.066.442.066.732v1.236Zm13.917-2.905a1.888 1.888 0 0 0-.546-.88c-.257-.223-.599-.394-1.027-.503-.423-.11-.95-.157-1.573-.157h-3.945c-.637 0-1.16.052-1.588.157-.418.11-.76.276-1.017.504a1.889 1.889 0 0 0-.547.88c-.113.356-.17.788-.17 1.287v2.006c0 .509.056.937.17 1.288.115.357.29.656.547.88.257.228.6.394 1.017.494.423.104.951.152 1.588.152h3.945c.618 0 1.145-.052 1.573-.152.428-.105.775-.266 1.027-.494.257-.224.442-.523.547-.88.114-.352.17-.784.17-1.288v-2.006c0-.499-.056-.931-.17-1.288Zm-1.81 2.947c0 .295-.02.547-.067.742a.997.997 0 0 1-.247.465.99.99 0 0 1-.466.252c-.2.053-.451.076-.756.076h-3.55c-.295 0-.547-.023-.742-.076a1 1 0 0 1-.465-.252.955.955 0 0 1-.248-.465 3.266 3.266 0 0 1-.066-.742v-1.326c0-.285.019-.528.066-.722a1.01 1.01 0 0 1 .248-.476.962.962 0 0 1 .465-.252 3.23 3.23 0 0 1 .742-.071h3.55c.31 0 .556.024.756.071a.962.962 0 0 1 .466.252c.119.124.195.28.247.476.048.194.067.437.067.722v1.326Zm5.314-7.295h-1.37c-.204 0-.308.104-.308.308v9.85c0 .203.104.308.309.308h1.369c.204 0 .309-.105.309-.309v-9.849c0-.204-.105-.309-.31-.309Zm12.443 4.349a1.935 1.935 0 0 0-.55-.88c-.258-.223-.6-.394-1.023-.503-.428-.11-.955-.157-1.578-.157h-5.214v-2.5c0-.205-.105-.31-.309-.31h-1.369c-.204 0-.309.105-.309.31v9.848c0 .204.105.309.31.309h1.368c.204 0 .309-.105.309-.309v-5.58h5.114c.295 0 .537.024.723.076.19.052.332.133.442.252a.9.9 0 0 1 .214.475c.042.2.057.442.057.732v4.045c0 .204.104.309.309.309h1.369c.204 0 .309-.105.309-.309v-4.52c-.01-.5-.062-.932-.172-1.288Zm11.242-.001a1.935 1.935 0 0 0-.552-.88c-.256-.223-.599-.394-1.022-.503-.427-.11-.955-.157-1.578-.157h-6.022c-.171 0-.252.08-.252.252v1.174c0 .171.081.252.252.252h5.832c.31 0 .556.019.751.071.195.048.347.12.461.214.11.095.19.224.238.385.047.157.071.347.071.57v.267h-5.684c-.41 0-.751.043-1.027.119-.271.08-.49.2-.66.356a1.213 1.213 0 0 0-.353.58c-.07.223-.109.485-.109.775v.67c0 .342.038.642.11.889.066.252.185.456.351.613.166.157.39.276.66.356.276.076.619.12 1.027.12h6.64c.205 0 .371-.015.504-.053a.557.557 0 0 0 .314-.176.771.771 0 0 0 .171-.342c.029-.143.048-.328.048-.547v-3.712c-.01-.504-.067-.936-.171-1.293Zm-1.83 4.102c0 .18-.029.304-.09.376-.062.066-.162.104-.314.104h-4.706c-.285 0-.485-.057-.603-.176-.12-.118-.176-.304-.176-.551v-.29c0-.219.057-.395.175-.509.12-.118.319-.175.604-.175h5.11v1.221Z"/><path fill="#fff" d="M34.636 52.78c-.347-1.055-.893-1.934-1.625-2.619-.732-.684-1.678-1.193-2.819-1.52-1.122-.32-2.476-.48-4.035-.48H12.838c-.722 0-1.136.413-1.136 1.135V67.51c0 .728.414 1.136 1.136 1.136h13.319c.384 0 .755-.01 1.116-.028 1.094-.057 2.073-.205 2.919-.447 1.14-.328 2.087-.837 2.819-1.521.732-.68 1.278-1.569 1.625-2.619.338-1.04.514-2.282.514-3.689v-3.868c0-1.407-.176-2.653-.514-3.694Zm-4.406 7.192c0 .803-.076 1.487-.219 2.034-.137.518-.36.932-.675 1.24-.318.305-.736.528-1.26.67-.541.144-1.22.215-2.034.215h-9.335c-.047 0-.071-.005-.076-.005-.005-.005-.01-.029-.01-.08V52.798c0-.076.015-.104.015-.104s.019-.01.071-.01h9.335c.804 0 1.488.072 2.035.214.518.143.94.37 1.26.67.313.31.537.723.674 1.24.143.543.219 1.227.219 2.035v3.128ZM58.692 48.16H46.167c-1.459 0-2.718.143-3.745.423-1.046.285-1.916.751-2.581 1.374-.67.627-1.165 1.45-1.469 2.443-.3.97-.451 2.167-.451 3.555v4.896c0 1.388.152 2.59.451 3.57.31 1.003.803 1.83 1.469 2.457.665.628 1.535 1.084 2.586 1.364 1.022.271 2.281.41 3.745.41h12.525c.594 0 .936-.334.936-.909V65.04c0-.58-.342-.908-.936-.908H46.253c-.713 0-1.307-.057-1.764-.176-.432-.11-.779-.295-1.036-.551-.256-.252-.437-.609-.537-1.06-.11-.48-.161-1.089-.161-1.802v-.2h15.8c.574 0 .907-.332.907-.907v-2.249c0-.57-.338-.907-.908-.907H42.745c0-.713.057-1.322.162-1.802.1-.447.28-.803.537-1.06.256-.257.603-.442 1.036-.551.461-.119 1.055-.176 1.768-.176h12.44c.593 0 .936-.333.936-.908v-2.714c.004-.575-.338-.908-.932-.908Zm29.593.367c-.066-.166-.233-.366-.675-.366h-3.73c-.547 0-.799.29-.903.518l-8.223 15.305c-.033.057-.052.057-.067.057h-.142c-.072 0-.076-.014-.095-.052l-8.342-15.32c-.1-.175-.21-.299-.333-.38-.133-.09-.318-.133-.57-.133h-3.589c-.466 0-.642.2-.703.366-.076.2-.048.433.085.709l9.45 17.106c.503.927 1.007 1.53 1.544 1.844.528.31 1.193.466 1.978.466h1.649c.656 0 1.245-.157 1.745-.47.503-.314.988-.918 1.492-1.84l9.34-17.116c.138-.257.166-.49.09-.694ZM34.87 38.244a1.889 1.889 0 0 0-.548-.88c-.256-.223-.599-.394-1.022-.503-.427-.11-.955-.157-1.577-.157h-5.234v-2.5c0-.205-.104-.31-.309-.31h-1.369c-.213 0-.323.105-.323.31v7.334c0 .508.057.936.166 1.288.115.356.295.656.552.88.252.227.594.394 1.017.493.418.105.946.153 1.583.153h3.912c.618 0 1.145-.053 1.578-.153.423-.104.77-.266 1.022-.494.256-.223.442-.523.546-.88.114-.351.171-.784.171-1.287v-2.006c0-.5-.057-.932-.166-1.288Zm-1.817 2.904c0 .295-.019.542-.066.741a.997.997 0 0 1-.247.466c-.12.119-.271.2-.466.252-.2.052-.452.076-.751.076h-3.517c-.295 0-.542-.024-.742-.076a1.002 1.002 0 0 1-.466-.252.997.997 0 0 1-.247-.466 3.294 3.294 0 0 1-.066-.741v-2.771h5.038c.304 0 .551.023.75.076a.998.998 0 0 1 .467.252c.118.119.194.275.247.475.047.2.066.442.066.732v1.236Zm13.917-2.905a1.888 1.888 0 0 0-.546-.88c-.257-.223-.599-.394-1.027-.503-.423-.11-.95-.157-1.573-.157h-3.945c-.637 0-1.16.052-1.588.157-.418.11-.76.276-1.017.504a1.889 1.889 0 0 0-.547.88c-.113.356-.17.788-.17 1.287v2.006c0 .509.056.937.17 1.288.115.357.29.656.547.88.257.228.6.394 1.017.494.423.104.951.152 1.588.152h3.945c.618 0 1.145-.052 1.573-.152.428-.105.775-.266 1.027-.494.257-.224.442-.523.547-.88.114-.352.17-.784.17-1.288v-2.006c0-.499-.056-.931-.17-1.288Zm-1.81 2.947c0 .295-.02.547-.067.742a.997.997 0 0 1-.247.465.99.99 0 0 1-.466.252c-.2.053-.451.076-.756.076h-3.55c-.295 0-.547-.023-.742-.076a1 1 0 0 1-.465-.252.955.955 0 0 1-.248-.465 3.266 3.266 0 0 1-.066-.742v-1.326c0-.285.019-.528.066-.722a1.01 1.01 0 0 1 .248-.476.962.962 0 0 1 .465-.252 3.23 3.23 0 0 1 .742-.071h3.55c.31 0 .556.024.756.071a.962.962 0 0 1 .466.252c.119.124.195.28.247.476.048.194.067.437.067.722v1.326Zm5.314-7.295h-1.37c-.204 0-.308.104-.308.308v9.85c0 .203.104.308.309.308h1.369c.204 0 .309-.105.309-.309v-9.849c0-.204-.105-.309-.31-.309Zm12.443 4.349a1.935 1.935 0 0 0-.55-.88c-.258-.223-.6-.394-1.023-.503-.428-.11-.955-.157-1.578-.157h-5.214v-2.5c0-.205-.105-.31-.309-.31h-1.369c-.204 0-.309.105-.309.31v9.848c0 .204.105.309.31.309h1.368c.204 0 .309-.105.309-.309v-5.58h5.114c.295 0 .537.024.723.076.19.052.332.133.442.252a.9.9 0 0 1 .214.475c.042.2.057.442.057.732v4.045c0 .204.104.309.309.309h1.369c.204 0 .309-.105.309-.309v-4.52c-.01-.5-.062-.932-.172-1.288Zm11.242-.001a1.935 1.935 0 0 0-.552-.88c-.256-.223-.599-.394-1.022-.503-.427-.11-.955-.157-1.578-.157h-6.022c-.171 0-.252.08-.252.252v1.174c0 .171.081.252.252.252h5.832c.31 0 .556.019.751.071.195.048.347.12.461.214.11.095.19.224.238.385.047.157.071.347.071.57v.267h-5.684c-.41 0-.751.043-1.027.119-.271.08-.49.2-.66.356a1.213 1.213 0 0 0-.353.58c-.07.223-.109.485-.109.775v.67c0 .342.038.642.11.889.066.252.185.456.351.613.166.157.39.276.66.356.276.076.619.12 1.027.12h6.64c.205 0 .371-.015.504-.053a.557.557 0 0 0 .314-.176.771.771 0 0 0 .171-.342c.029-.143.048-.328.048-.547v-3.712c-.01-.504-.067-.936-.171-1.293Zm-1.83 4.102c0 .18-.029.304-.09.376-.062.066-.162.104-.314.104h-4.706c-.285 0-.485-.057-.603-.176-.12-.118-.176-.304-.176-.551v-.29c0-.219.057-.395.175-.509.12-.118.319-.175.604-.175h5.11v1.221Z"/></svg>