<svg version="1.1" id="Layer_1" xmlns="http://www.w3.org/2000/svg" x="0" y="0" viewBox="0 0 40 40" xml:space="preserve"><style>.st2{fill:#6da544}</style><circle cx="20" cy="20" r="20" fill="#f0f0f0"/><path d="M40 20c0-7.9-4.6-14.8-11.3-18v36C35.4 34.8 40 27.9 40 20z" fill="#d80027"/><path class="st2" d="M0 20c0 7.9 4.6 14.8 11.3 18V2C4.6 5.2 0 12.1 0 20zM14.8 20c0 2.9 2.3 5.2 5.2 5.2s5.2-2.3 5.2-5.2v-1.7H14.8V20z"/><path d="M27 16.5h-5.2c0-1-.8-1.7-1.7-1.7-1 0-1.7.8-1.7 1.7H13c0 1 .8 1.7 1.8 1.7h-.1c0 1 .8 1.7 1.7 1.7 0 1 .8 1.7 1.7 1.7h3.5c1 0 1.7-.8 1.7-1.7 1 0 1.7-.8 1.7-1.7h-.1c1.2.1 2.1-.7 2.1-1.7z" fill="#ff9811"/></svg>