<svg id="Camada_1" data-name="Camada 1" xmlns="http://www.w3.org/2000/svg" viewBox="0 0 100 100"><defs><style>.cls-1{fill:#667176}</style></defs><path class="cls-1" d="M34.8 75a.64.64 0 01.25-.15.64.64 0 00-.25.15zM35.66 74.82a.64.64 0 01.25.15 1.67 1.67 0 01.12.16.83.83 0 00-.12-.16.64.64 0 00-.25-.15zM34.52 75.53c.07-.14.09-.27.16-.4a.72.72 0 00-.16.4zM27.82 66.88a.75.75 0 00-.16.4c.07-.13.09-.28.16-.4zM28.51 66.52a.77.77 0 00-.57.2 1 1 0 01.57-.2zM29.33 67.28c-.07.13-.09.27-.16.4a.68.68 0 00.16-.4zM34.8 76.08a.77.77 0 01-.28-.55.54.54 0 00.28.55zM62.77 75.13a.67.67 0 00-.17.4c.07-.14.09-.27.17-.4zM69.53 66.88a.75.75 0 00-.16.4c.07-.13.09-.28.16-.4zM70.76 67.84a1 1 0 01-.57.2.77.77 0 00.57-.2z"/><path class="cls-1" d="M49.35 1.47A47.5 47.5 0 1096.85 49a47.5 47.5 0 00-47.5-47.53zm-8.06 17.34a.83.83 0 01.83.83.84.84 0 01-.83.84.85.85 0 01-.84-.84.84.84 0 01.84-.83zm-1.86 4.26a.83.83 0 01-.83.83.83.83 0 110-1.66.83.83 0 01.83.83zm-2.68-7.23A1.76 1.76 0 1135 17.6a1.76 1.76 0 011.75-1.76zM34.52 22a.56.56 0 110 1.11c-.28 0-.46-.28-.56-.56a.6.6 0 01.56-.55zm13.53 60a24.67 24.67 0 01-21.41-15.2.74.74 0 01-.09-.47 1.21 1.21 0 01.74-1.11l1.71-.54A22.55 22.55 0 0043.05 77.1v.1a25.22 25.22 0 002.69.65v-.1a9.6 9.6 0 002.31.28zm7.88-13.44h-1a1.56 1.56 0 011.3-.56 1.86 1.86 0 010 3.71 2.07 2.07 0 01-1.3-.56h1a1.31 1.31 0 000-2.59zm.11 3.7a2.5 2.5 0 000-5 2.44 2.44 0 00-2.13 1.2h-9.45a2.5 2.5 0 10-2.14 3.8 2.53 2.53 0 002-1.11h3.53v5.75a21.09 21.09 0 01-18-12.51v-.1l.74-.27h.18l1.39-.47L33.8 63a.65.65 0 00.37-.56v-2.85a.6.6 0 01.55-.56h.47a.54.54 0 00.37-.93 19.3 19.3 0 01-6.12-14.18 19.63 19.63 0 014-11.86l-.84-.83a1 1 0 010-1.39l2.13-2.23a1 1 0 011.4 0l.92.84a19.68 19.68 0 0112.33-4.27 17.52 17.52 0 014.91.65l-2.87 7.42a16.78 16.78 0 00-2.23-.19 11.57 11.57 0 103.34.46l2.87-7.41a20 20 0 015.84 3.24l1.58-1A3 3 0 0167 28l4.08 5.75a3.72 3.72 0 01.63 2.25 2.75 2.75 0 01-1.21 1.9l-2 1.48a17.28 17.28 0 01.5 4.45A19.81 19.81 0 0162.9 58c-.37.28-.09.93.37.93h.46a.6.6 0 01.56.55v2.88a.62.62 0 00.37.55l3 1h.18l.74.28v.09a21.11 21.11 0 01-13 11.59v-.09a25.82 25.82 0 01-2.69.65v.09l-2.32.28v-5.63H54a2.42 2.42 0 002 1.11zm-13.18-1.09h.93a1.86 1.86 0 110-2.59h-1a1.15 1.15 0 00-1 1.3 1.29 1.29 0 001.07 1.29zM72.06 67a24.75 24.75 0 01-16.41 14.37v-.09a12.83 12.83 0 01-2.69.55v.09a18 18 0 01-2.31.19V78a22.37 22.37 0 0019.09-13.32l1.67.56a1.3 1.3 0 01.74 1.3 1 1 0 01-.09.46z"/></svg>