<svg width="23" height="23" viewBox="0 0 23 23" fill="none" xmlns="http://www.w3.org/2000/svg">
<path fill-rule="evenodd" clip-rule="evenodd" d="M22.958 11.479C22.958 17.819 17.818 22.959 11.478 22.959C5.14 22.958 0 17.818 0 11.478C0 5.139 5.14 0 11.479 0C17.819 0 22.958 5.14 22.958 11.48" fill="#657176"/>
<path d="M18.9666 14.6182C18.9003 14.5594 18.7404 14.6112 18.7092 14.6216C18.2686 14.7634 18.0191 15.5068 17.9294 15.5275C17.8865 15.5379 17.867 15.5206 17.867 15.5206C17.8592 15.5171 17.8553 15.5102 17.8514 15.5033L17.4849 14.6389L17.5863 14.5836C17.5863 14.5836 17.5668 14.5352 17.5356 14.4557C17.5356 14.4522 17.5317 14.4487 17.5317 14.4453C17.52 14.4176 17.5083 14.3865 17.4927 14.3485C17.4888 14.3416 17.4888 14.3346 17.4849 14.3312C17.4732 14.2966 17.4576 14.2586 17.442 14.2205C17.442 14.2171 17.4381 14.2102 17.4381 14.2067C17.4225 14.1652 17.403 14.1168 17.3835 14.0684L17.3718 14.0373C17.3523 13.9889 17.3289 13.9336 17.3094 13.8817C17.3055 13.8748 17.3016 13.8679 17.3016 13.8609C17.2821 13.8091 17.2587 13.7538 17.2353 13.6984C17.2314 13.6881 17.2275 13.6812 17.2236 13.6708C17.2002 13.612 17.1729 13.5498 17.1456 13.4875C17.1417 13.4737 17.134 13.4599 17.1301 13.4495C17.1028 13.3838 17.0755 13.3181 17.0443 13.2524C17.0404 13.2455 17.0404 13.2386 17.0365 13.2317C17.0092 13.1694 16.9819 13.1037 16.9507 13.038C16.9468 13.0242 16.939 13.0138 16.9351 13L16.8415 12.7926C16.8337 12.7787 16.8298 12.7649 16.822 12.7511C16.7908 12.6785 16.7557 12.6093 16.7245 12.5367V12.5332C16.6895 12.4606 16.6583 12.388 16.6232 12.3189C16.6154 12.305 16.6076 12.2877 16.6037 12.2739C16.5686 12.2048 16.5374 12.1356 16.5023 12.0665C16.4945 12.0526 16.4906 12.0423 16.4828 12.0284C16.4477 11.9593 16.4165 11.8936 16.3814 11.8279C16.3775 11.8244 16.3775 11.8175 16.3736 11.8141C16.3385 11.7449 16.3034 11.6792 16.2683 11.6135L16.2449 11.572C16.2099 11.5063 16.1748 11.4441 16.1397 11.3819C16.1397 11.3784 16.1358 11.3749 16.1358 11.3715C16.0695 11.2539 16.0032 11.1398 15.9369 11.0396C15.9291 11.0361 15.7848 10.9773 15.5431 10.8909C15.5392 10.8909 15.5353 10.8874 15.5314 10.8874C15.4885 10.8736 15.4417 10.8563 15.391 10.839C15.3832 10.8356 15.3754 10.8356 15.3715 10.8321C15.3247 10.8183 15.2779 10.801 15.2273 10.7837C15.2156 10.7802 15.2039 10.7768 15.1883 10.7699C15.1298 10.7526 15.0713 10.7318 15.0089 10.7145C14.9972 10.7111 14.9855 10.7076 14.9777 10.7042C14.9231 10.6869 14.8646 10.6696 14.81 10.6523C14.7944 10.6489 14.7789 10.6419 14.7633 10.6385C14.697 10.6177 14.6268 10.597 14.5566 10.5797C14.541 10.5762 14.5293 10.5728 14.5137 10.5693C14.4513 10.552 14.385 10.5348 14.3187 10.5175C14.3031 10.514 14.2876 10.5106 14.272 10.5036C14.194 10.4829 14.116 10.4621 14.038 10.4449C14.0224 10.4414 14.0029 10.4379 13.9873 10.431C13.9171 10.4137 13.8469 10.3965 13.7729 10.3826L13.7261 10.3722C13.6442 10.355 13.5584 10.3342 13.4726 10.3169L13.4141 10.3066C13.3362 10.2927 13.2582 10.2754 13.1802 10.2616C13.1646 10.2581 13.1529 10.2581 13.1373 10.2547C13.0476 10.2409 12.9579 10.2236 12.8683 10.2097C12.8488 10.2063 12.8254 10.2028 12.8059 10.1994C12.724 10.189 12.6421 10.1752 12.5563 10.1648C12.5446 10.1648 12.5329 10.1613 12.5212 10.1613C12.4316 10.151 12.338 10.1406 12.2444 10.1337C12.221 10.1302 12.2015 10.1302 12.1781 10.1268C12.0884 10.1198 12.0026 10.1129 11.913 10.1095H11.8935C11.8272 10.106 11.7648 10.1026 11.6985 10.1026C11.6829 10.0611 11.6556 10.023 11.6166 9.99191L11.5035 9.90547C11.4295 9.85015 11.3905 9.78446 11.371 9.71531C11.3749 9.70493 11.3788 9.69802 11.3827 9.68419C11.3866 9.65999 11.3788 9.63578 11.3632 9.61504C11.3632 9.60467 11.3632 9.59084 11.3671 9.58046C11.4607 9.14826 11.6907 8.01764 11.8038 7.00456C11.8155 6.88009 11.9169 6.77982 12.0533 6.7487C12.4744 6.65535 13.5935 6.34071 14.4942 5.92925C15.4105 5.51089 16.1046 4.99571 15.6211 4.51165C15.4183 4.29728 14.2642 3.68183 13.9249 3.5539C13.8781 3.53661 13.8236 3.54007 13.7846 3.56773L13.6715 3.64034C13.3635 3.47437 12.9267 3.26346 12.7123 3.25309C12.3575 3.23926 11.488 3.20468 11.4957 3.36027C11.5035 3.51586 12.4432 3.42251 12.3653 3.53315C12.2912 3.64034 11.8389 3.54007 11.8974 3.66108C11.9559 3.7821 12.7006 3.62996 13.0008 3.7821C13.0905 3.82705 13.1685 3.87199 13.2348 3.91349L13.188 3.9446C13.1139 3.99301 13.1022 4.08636 13.1724 4.14514C13.3868 4.32494 13.8275 4.67761 14.1199 4.80554C14.1199 4.80554 12.4978 4.87469 11.1097 5.4694V5.40716C11.1877 5.38987 11.2579 5.34838 11.3047 5.28615C11.3788 5.18588 11.3749 5.05795 11.3008 4.96459C11.3047 4.95076 11.3086 4.93347 11.3086 4.91618L11.3203 4.51856C11.3203 4.48399 11.3476 4.45633 11.3827 4.44595L11.562 4.39755C11.6127 4.38372 11.6361 4.33185 11.6088 4.29382L11.3398 3.87545C11.2891 3.62651 11.2267 3.43634 11.1838 3.31532C11.3398 3.29804 11.4763 3.26 11.488 3.14245C11.5035 3.00068 11.3203 3.03526 11.2774 2.90733C11.2579 2.85201 11.332 2.75174 11.2306 2.67567C11.1058 2.58232 10.8212 2.92462 10.7432 2.78631C10.6652 2.64455 10.5054 2.5512 10.2753 2.75174C10.0414 2.95228 9.90098 2.63764 9.67873 2.77248C9.45648 2.90733 9.56176 2.97648 9.24202 3.03526C9.08606 3.06292 8.96129 3.26 8.95349 3.50203C8.06448 3.79938 7.23395 4.25924 7.27684 4.9231C7.29244 5.18933 7.63167 5.31726 8.02548 5.3795C8.10737 5.45557 8.21264 5.50397 8.32572 5.52472C8.15805 5.58695 8.02548 5.6734 7.9475 5.79441C7.4913 6.52396 5.89263 8.13865 6.00571 9.0065C6.10319 9.781 6.30204 11.6101 6.34494 11.9904C6.34884 12.0353 6.37613 12.0734 6.41903 12.0976L6.45411 12.1183C6.45411 12.2186 6.43852 12.388 6.37224 12.6681C6.23577 13.249 6.58668 13.8644 6.71536 13.7676C6.84403 13.6708 6.76605 12.9758 6.82064 12.9793C6.87523 12.9827 6.92982 13.5705 7.0156 13.3043C7.10138 13.0415 6.95321 12.6715 6.95321 12.6715C6.80504 12.4572 6.92981 12.3707 6.92981 12.3707L6.90642 12.3534C6.98441 12.3569 7.05849 12.312 7.07798 12.2393L7.33143 11.1848C7.33923 11.1848 7.34703 11.1882 7.35483 11.1882H7.36262C7.36652 11.1882 7.37042 11.1848 7.37432 11.1848L7.38602 11.2297C7.41332 11.3404 7.51859 11.4164 7.63557 11.4268C7.73305 12.0146 8.18535 14.7737 8.26334 15.3373C8.26724 15.3581 8.26723 15.3754 8.27113 15.3961V15.4099C8.27113 15.4238 8.27503 15.4376 8.27503 15.4549V15.569C8.27503 15.5794 8.27503 15.5863 8.27113 15.5967C8.27113 15.607 8.27113 15.6174 8.26723 15.6278C8.26723 15.6347 8.26334 15.6451 8.26334 15.652C8.26334 15.6623 8.25943 15.6727 8.25943 15.6831C8.25943 15.6935 8.25553 15.7004 8.25553 15.7108C8.25553 15.7211 8.25164 15.7315 8.25164 15.7419C8.25164 15.7522 8.24774 15.7626 8.24384 15.773C8.24384 15.7834 8.23994 15.7903 8.23994 15.8007C8.23604 15.811 8.23604 15.8249 8.23214 15.8352C8.23214 15.8456 8.22824 15.8525 8.22824 15.8629C8.22434 15.8733 8.22434 15.8871 8.22044 15.8975C8.21654 15.9078 8.21654 15.9182 8.21265 15.9251C8.20875 15.9355 8.20875 15.9493 8.20485 15.9597C8.20095 15.9701 8.20094 15.9804 8.19704 15.9908C8.19314 16.0012 8.19315 16.0116 8.18925 16.0219C8.18145 16.0461 8.17755 16.0738 8.16975 16.1015C8.16585 16.1118 8.16585 16.1187 8.16195 16.1291C8.15806 16.1395 8.15806 16.1533 8.15416 16.1637C8.15026 16.1775 8.14636 16.1914 8.14246 16.2086C8.13856 16.219 8.13856 16.2294 8.13466 16.2398C8.13076 16.2571 8.12686 16.2709 8.12296 16.2882C8.11906 16.302 8.11517 16.3158 8.11517 16.3297C8.11127 16.3435 8.10737 16.3573 8.10347 16.3746C8.09957 16.3884 8.09567 16.4023 8.09567 16.4196C8.09177 16.4368 8.08787 16.4507 8.08397 16.468C8.08007 16.4818 8.08007 16.4956 8.07617 16.5129C8.07228 16.5302 8.06837 16.5475 8.06448 16.5682C8.06058 16.5821 8.06058 16.5994 8.05668 16.6132C8.05278 16.6339 8.04888 16.6512 8.04498 16.672C8.04108 16.6892 8.04108 16.7065 8.03718 16.7204C8.03328 16.7411 8.02939 16.7619 8.02939 16.7826C8.02549 16.7999 8.02548 16.8172 8.02158 16.8379C8.01768 16.8587 8.01378 16.8794 8.01378 16.9036C8.00988 16.9244 8.00989 16.9417 8.00599 16.9624C8.00209 16.9831 8.00209 17.0073 7.99819 17.0281C7.99429 17.0488 7.99429 17.0696 7.99039 17.0938C7.9865 17.118 7.98649 17.1387 7.98259 17.1629C7.97869 17.1837 7.97869 17.2079 7.97479 17.2286C7.97089 17.2528 7.9709 17.2805 7.967 17.3047C7.967 17.3289 7.96309 17.3496 7.96309 17.3739C7.96309 17.4015 7.9592 17.4292 7.9592 17.4568C7.9592 17.481 7.9553 17.5087 7.9553 17.5329C7.9553 17.5606 7.9514 17.5882 7.9514 17.6193C7.9514 17.647 7.9475 17.6747 7.9475 17.7023C7.9475 17.73 7.9436 17.7611 7.9436 17.7888C7.9436 17.8164 7.9436 17.8475 7.9397 17.8787V18.0342C7.92801 18.0481 7.91631 18.0619 7.91241 18.0792C7.90851 18.1069 7.9202 18.1311 7.9358 18.1518V18.3662C7.9358 18.3973 7.9358 18.4319 7.9397 18.4664C7.9397 18.5045 7.9397 18.5425 7.9436 18.5805C7.9436 18.6151 7.9475 18.6532 7.9475 18.6877C7.9475 18.7189 7.9475 18.75 7.9514 18.7811V18.8295L7.99039 18.826L7.9553 20.3163C7.9553 20.3474 7.99039 20.3716 8.02158 20.3612C8.57916 20.2056 9.48767 19.8841 9.8347 19.7596C9.88149 19.7423 9.87759 19.6801 9.8269 19.6697C9.38629 19.5763 8.85991 19.6628 8.66105 19.7043C8.62206 19.7112 8.59086 19.6835 8.59866 19.6489C8.66885 19.362 8.78972 18.8883 8.82481 18.75L8.91059 18.7431C8.91059 18.7431 8.9145 18.7361 8.9262 18.7223C8.9301 18.7189 8.93009 18.7154 8.93399 18.7085C8.93789 18.705 8.93789 18.7016 8.94179 18.6946C8.94569 18.6877 8.94959 18.6843 8.95349 18.6774L8.96519 18.6566C8.96909 18.6497 8.97298 18.6428 8.98078 18.6359C8.98468 18.629 8.99247 18.6186 8.99637 18.6082C9.00027 18.5978 9.00808 18.5909 9.01198 18.5805C9.01977 18.5702 9.02367 18.5598 9.03147 18.5494C9.03927 18.5391 9.04317 18.5287 9.05097 18.5149C9.05877 18.501 9.06656 18.4906 9.07046 18.4768C9.07826 18.463 9.08216 18.4526 9.08996 18.4388C9.09776 18.425 9.10555 18.4077 9.11335 18.3938C9.12115 18.38 9.12895 18.3662 9.13675 18.3489C9.14455 18.3316 9.15234 18.3143 9.16404 18.297C9.17184 18.2797 9.17964 18.2659 9.18744 18.2486C9.19524 18.2279 9.20693 18.2071 9.21473 18.1864L9.23813 18.1345C9.24983 18.1138 9.25762 18.0896 9.26932 18.0654C9.27711 18.0446 9.28492 18.0273 9.29272 18.0066C9.30441 17.9824 9.31221 17.9547 9.32391 17.9305C9.33171 17.9098 9.33951 17.889 9.3512 17.8648C9.3629 17.8372 9.3746 17.8095 9.3824 17.7784C9.3902 17.7542 9.39799 17.7334 9.40969 17.7092C9.42139 17.6781 9.43308 17.6435 9.44478 17.6124C9.45258 17.5882 9.46038 17.5675 9.46818 17.5433C9.47988 17.5052 9.49547 17.4672 9.50717 17.4257C9.51497 17.405 9.52277 17.3842 9.52667 17.3635C9.54616 17.3012 9.56566 17.239 9.58515 17.1699C9.58905 17.1629 9.58905 17.1526 9.59295 17.1456C9.60855 17.0869 9.62804 17.0246 9.64364 16.9624C9.65144 16.9382 9.65534 16.914 9.66314 16.8898C9.67483 16.8414 9.69043 16.793 9.70213 16.7411L9.72553 16.6478C9.73722 16.5994 9.74892 16.5544 9.76062 16.506L9.78401 16.4023C9.79571 16.3539 9.8035 16.3055 9.8152 16.2571L9.8386 16.1429C9.8464 16.0945 9.85809 16.0427 9.86589 15.9943L9.88929 15.8698C9.89709 15.8179 9.90878 15.7661 9.91658 15.7142C9.92438 15.6693 9.93218 15.6243 9.93608 15.5794C9.94388 15.5275 9.95168 15.4722 9.95948 15.4169C9.96728 15.3719 9.97118 15.3235 9.97897 15.2786C9.98677 15.2232 9.99457 15.1645 9.99847 15.1091C10.0024 15.0607 10.0102 15.0123 10.0141 14.9605C10.0219 14.9017 10.0258 14.8429 10.0336 14.7807C10.0375 14.7288 10.0453 14.6804 10.0492 14.6251C10.0531 14.5628 10.0609 14.5006 10.0648 14.4349C10.0687 14.383 10.0726 14.3277 10.0765 14.2759C10.0804 14.2102 10.0842 14.1445 10.0881 14.0753C10.092 14.02 10.0959 13.9647 10.0959 13.9094C10.0998 13.8402 10.1037 13.7676 10.1037 13.6984C10.1076 13.6431 10.1076 13.5878 10.1115 13.529C10.1154 13.4564 10.1154 13.3803 10.1154 13.3043C10.1154 13.2455 10.1193 13.1902 10.1193 13.1314V12.7165C10.1193 12.6231 10.1154 12.5263 10.1154 12.4295C10.1154 12.3811 10.1154 12.3327 10.1115 12.2843C10.1076 12.1667 10.1037 12.0492 10.0998 11.9282H10.1076C10.1544 11.9247 10.1895 11.8936 10.1973 11.8521C10.556 11.9109 11.8896 12.0976 14.3928 12.0837C14.4123 12.1183 14.4513 12.1391 14.4981 12.1356L14.5176 12.1322L14.5293 12.1529C14.5332 12.1564 14.5332 12.1633 14.5371 12.1667C14.541 12.1736 14.5449 12.184 14.5527 12.1944V12.1978C14.5605 12.2117 14.5683 12.2255 14.5761 12.2428C14.58 12.2497 14.5839 12.2566 14.5878 12.2601C14.5956 12.2705 14.5995 12.2843 14.6073 12.2981C14.6112 12.3016 14.6151 12.3085 14.6151 12.3154C14.6229 12.3292 14.6307 12.3465 14.6424 12.3604C14.6463 12.3673 14.6502 12.3776 14.658 12.3846L14.6814 12.4261C14.6892 12.4364 14.6931 12.4468 14.7009 12.4572C14.7087 12.471 14.7165 12.4848 14.7282 12.4987C14.736 12.509 14.7438 12.5229 14.7516 12.5367L14.775 12.5782C14.7828 12.592 14.7945 12.6058 14.8022 12.6231C14.81 12.637 14.8217 12.6508 14.8295 12.6681C14.8373 12.6819 14.849 12.6992 14.8568 12.713C14.8646 12.7269 14.8763 12.7441 14.8841 12.758C14.8919 12.7718 14.9036 12.7891 14.9153 12.8029C14.927 12.8202 14.9387 12.8375 14.9465 12.8548C14.9543 12.8686 14.966 12.8825 14.9738 12.8997C14.9855 12.9205 14.9972 12.9378 15.0128 12.9585C15.0245 12.9758 15.0323 12.9896 15.044 13.0069C15.0557 13.0277 15.0674 13.045 15.083 13.0657L15.1181 13.1176C15.1298 13.1383 15.1454 13.1556 15.1571 13.1763L15.1922 13.2282C15.2078 13.249 15.2195 13.2662 15.2351 13.287C15.2467 13.3043 15.2623 13.3216 15.274 13.3423C15.2896 13.3631 15.3013 13.3838 15.3169 13.4045C15.3286 13.4218 15.3442 13.4426 15.3559 13.4599L15.4027 13.5221C15.4183 13.5429 15.43 13.5601 15.4456 13.5809C15.4612 13.6016 15.4768 13.6224 15.4924 13.6466C15.508 13.6673 15.5197 13.6846 15.5353 13.7054C15.5509 13.7261 15.5704 13.7503 15.586 13.771C15.6016 13.7918 15.6172 13.8125 15.6328 13.8298C15.6484 13.8506 15.6679 13.8748 15.6835 13.8955L15.7303 13.9578C15.7459 13.9785 15.7653 14.0027 15.7809 14.0235C15.7965 14.0442 15.816 14.0649 15.8316 14.0857C15.8511 14.1064 15.8667 14.1306 15.8862 14.1514C15.9018 14.1721 15.9213 14.1929 15.9369 14.2136C15.9564 14.2344 15.9759 14.2586 15.9954 14.2793C16.0149 14.3001 16.0305 14.3208 16.05 14.3416C16.0695 14.3623 16.089 14.3865 16.1085 14.4072C16.128 14.428 16.1475 14.4487 16.1631 14.4695C16.1826 14.4902 16.202 14.5144 16.2215 14.5352L16.28 14.5974C16.2995 14.6182 16.319 14.6424 16.3424 14.6631L16.4009 14.7253C16.3736 14.7599 16.3736 14.8049 16.4048 14.836C16.4282 14.8602 16.4633 14.874 16.4984 14.8706C16.5101 14.8706 16.5218 14.8636 16.5335 14.8567C16.553 14.8775 16.5725 14.8982 16.592 14.9155C16.6115 14.9363 16.6349 14.957 16.6544 14.9777C16.67 14.995 16.6855 15.0089 16.7011 15.0262C16.7128 15.0365 16.7245 15.0469 16.7362 15.0607L16.7674 15.0434L17.5902 16.1118C17.5941 16.1153 17.6213 16.1222 17.6525 16.1291C18.2179 16.219 19.1927 14.8222 18.9666 14.6182V14.6182Z" fill="white"/>
<path d="M10.526 8.58053C10.7431 7.9246 10.7889 7.10204 10.7774 6.4532C11.0518 5.76891 11.6157 5.11653 11.6157 5.11653L11.1051 5.29026C10.968 5.3789 10.8384 5.49945 10.7203 5.63773C10.6898 5.46754 10.5793 5.31863 10.4116 5.23354C9.88963 4.97471 8.42265 4.84707 8.13687 5.30445C7.6682 6.05256 7.34052 7.43532 7.18811 8.63371C7.13857 9.01663 7.38624 9.38182 7.77871 9.50237C8.37693 9.68674 9.24568 9.86401 9.8058 9.57328C10.0268 9.45628 10.2021 9.26127 10.3392 9.01663C11.3033 9.16909 11.8329 8.95635 11.8329 8.95635L11.9091 8.55216C11.3261 8.70107 10.7965 8.63371 10.526 8.58053V8.58053Z" fill="#3C3C3C"/>
</svg>
