<svg version="1.1" id="Layer_1" xmlns="http://www.w3.org/2000/svg" x="0" y="0" viewBox="0 0 40 40" xml:space="preserve"><style>.st0{fill:#ffda44}</style><path class="st0" d="M0 20C0 9 9 0 20 0s20 9 20 20l-20 1.7L0 20z"/><path d="M2.7 30c3.5 6 9.9 10 17.3 10s13.9-4 17.3-10L20 28.7 2.7 30z" fill="#d80027"/><path d="M37.3 30C39 27.1 40 23.6 40 20H0c0 3.6 1 7.1 2.7 10h34.6z" fill="#0052b4"/><circle class="st0" cx="20" cy="20" r="7"/><path d="M20 24.3c-2.4 0-4.3-2-4.3-4.3v-2.6c0-2.4 2-4.3 4.3-4.3s4.3 2 4.3 4.3V20c0 2.4-1.9 4.3-4.3 4.3z" fill="#338af3"/><path d="M27 9.6h-5.2c0-1-.8-1.7-1.7-1.7-1 0-1.7.8-1.7 1.7H13c0 1 .8 1.7 1.8 1.7h-.1c0 1 .8 1.7 1.7 1.7 0 1 .8 1.7 1.7 1.7h3.5c1 0 1.7-.8 1.7-1.7 1 0 1.7-.8 1.7-1.7h-.1c1.2 0 2.1-.8 2.1-1.7z"/></svg>