<svg xmlns="http://www.w3.org/2000/svg" width="115" height="30.425" fill="none"><path d="M66.7 0h2.967c.154 0 .289.128.289.29v29.846a.29.29 0 01-.29.289h-2.965a.291.291 0 01-.289-.29V.29c0-.161.128-.289.289-.289zm20.443 24.559v.753c0 .335-.055.779-.182 1.357-.107.544-.389 1.122-.886 1.666-.47.544-1.167 1.041-2.134 1.459-.96.389-2.261.598-3.926.598-1.664 0-2.966-.21-3.925-.598-.96-.39-1.638-.888-2.135-1.459-.47-.544-.778-1.122-.886-1.693-.107-.57-.18-.988-.18-1.33V8.305a.29.29 0 01.288-.289h2.966a.29.29 0 01.289.289v15.911c0 .524.08.914.154 1.196.08.316.235.598.443.86.235.29.57.498 1.04.679.443.181 1.067.29 1.846.29.805 0 1.456-.108 1.926-.29.47-.181.832-.39 1.067-.652.262-.261.416-.524.496-.833.08-.316.182-.544.182-1.277V8.305a.29.29 0 01.288-.289h2.967a.29.29 0 01.288.289zm10.146-16.51h2c.182 0 .316.182.262.336l-.678 2.608a.278.278 0 01-.261.208h-1.403c-.752 0-1.355.107-1.819.316-.443.208-.832.417-1.066.705-.236.29-.39.545-.47.833-.081.316-.108.572-.108.834v16.247a.29.29 0 01-.288.289h-2.993a.291.291 0 01-.29-.29V13.158c0-.317.055-.754.182-1.331.108-.571.39-1.122.886-1.693.47-.545 1.168-1.042 2.134-1.459.92-.416 2.248-.624 3.912-.624zm-40.917 0c2.416 0 4.215.471 5.356 1.431 1.12.962 1.691 2.164 1.691 3.596v12.242c0 .498-.107 1.042-.288 1.64-.182.598-.524 1.15-1.04 1.64-.524.497-1.249.913-2.162 1.249-.912.336-2.107.497-3.563.497-1.483 0-2.651-.181-3.564-.497-.912-.316-1.637-.752-2.16-1.25-.524-.497-.887-1.041-1.04-1.64-.182-.597-.29-1.149-.29-1.64v-1.954c0-1.041.29-2.003.806-2.862.544-.86 1.302-1.486 2.288-1.822.497-.181 1.04-.335 1.692-.57.624-.236 1.248-.417 1.845-.652.597-.209 1.094-.39 1.564-.545.443-.18.731-.262.832-.316.1-.056.262-.127.416-.234.181-.107.336-.263.523-.417.182-.209.316-.417.416-.652.128-.262.182-.545.182-.887v-.78c0-.288-.054-.544-.182-.86-.107-.315-.315-.544-.57-.806-.262-.262-.65-.443-1.094-.598-.443-.155-1.013-.235-1.718-.235-1.376 0-2.288.29-2.812.86a3.116 3.116 0 00-.731 1.794c0 .155-.128.262-.289.262h-2.913a.29.29 0 01-.288-.289v-.732c0-.705.127-1.358.39-1.956a4.122 4.122 0 011.274-1.612 6.048 6.048 0 012.208-1.069 16.168 16.168 0 013.221-.335zm3.564 10.986c-.053.29-.208.47-.416.625a3.004 3.004 0 01-.624.317c-.416.154-.886.315-1.356.47-.47.181-.94.335-1.355.47-.497.182-.987.337-1.403.498-.335.154-.65.335-.96.57-.261.235-.47.498-.677.86-.209.364-.316.78-.316 1.304 0 1.041.262 1.82.752 2.345.496.498 1.43.78 2.785.78 1.376 0 2.315-.29 2.839-.807.496-.544.751-1.303.751-2.291zM107.953 8.05c2.416 0 4.215.47 5.356 1.43 1.12.962 1.691 2.164 1.691 3.596v12.242c0 .498-.107 1.042-.289 1.64-.18.598-.523 1.15-1.04 1.64-.523.497-1.248.913-2.161 1.249-.913.336-2.107.497-3.563.497-1.484 0-2.651-.181-3.564-.497-.912-.316-1.637-.752-2.16-1.25-.524-.497-.887-1.041-1.04-1.64-.182-.597-.29-1.149-.29-1.64v-1.954c0-1.041.29-2.003.806-2.862.543-.86 1.302-1.486 2.288-1.822.496-.181 1.04-.335 1.692-.57.623-.236 1.247-.417 1.845-.652.597-.209 1.094-.39 1.564-.545.443-.18.731-.262.832-.316.107-.056.261-.127.416-.234.181-.107.335-.263.523-.417.181-.209.316-.417.416-.652.128-.262.181-.545.181-.887v-.78c0-.288-.054-.544-.18-.86-.108-.315-.316-.544-.571-.806-.288-.262-.651-.443-1.094-.598-.443-.155-1.014-.235-1.718-.235-1.376 0-2.289.29-2.812.86a3.113 3.113 0 00-.731 1.794c0 .155-.128.262-.289.262h-2.993a.29.29 0 01-.288-.289v-.732c0-.705.127-1.358.389-1.956a4.123 4.123 0 011.275-1.612 6.046 6.046 0 012.207-1.069c.987-.181 2.054-.335 3.302-.335zm3.537 10.985c-.055.29-.208.47-.416.625a2.999 2.999 0 01-.624.317c-.416.154-.886.315-1.355.47-.47.181-.94.335-1.357.47-.496.182-.986.337-1.402.498-.335.154-.65.335-.96.57-.261.235-.47.498-.677.86-.209.337-.316.78-.316 1.304 0 1.041.262 1.82.752 2.345.497.498 1.43.78 2.785.78 1.375 0 2.315-.29 2.839-.807.496-.544.75-1.303.75-2.291zM7.577 16.106v.773l-1.49.174a2.6 2.6 0 01.53 1.606c0 .787-.268 1.418-.805 1.889-.537.47-1.275.706-2.215.706-.241 0-.463-.024-.671-.062-.517.276-.778.618-.778 1.035 0 .222.087.383.268.49.181.107.49.155.933.155h1.423c.872 0 1.536.181 2.006.55.47.37.698.901.698 1.6 0 .893-.356 1.572-1.067 2.036-.711.47-1.752.699-3.12.699-1.054 0-1.86-.195-2.43-.585-.577-.389-.859-.94-.859-1.66 0-.49.154-.912.47-1.268.315-.357.751-.598 1.322-.726a1.268 1.268 0 01-.517-.431 1.133 1.133 0 01-.208-.685c0-.296.08-.55.235-.773.154-.222.403-.43.738-.638-.416-.168-.751-.463-1.013-.874-.262-.41-.39-.88-.39-1.41 0-.88.262-1.56.792-2.037.53-.476 1.276-.712 2.242-.712.423 0 .799.05 1.134.148zm-6.403 9.393c0 .437.182.767.55.988.37.222.893.336 1.578.336 1.02 0 1.778-.154 2.268-.456.49-.31.738-.72.738-1.244 0-.436-.134-.739-.402-.907-.269-.168-.772-.255-1.517-.255H2.926c-.55 0-.98.134-1.289.397-.308.268-.463.651-.463 1.141zm.658-6.82c0 .565.161.988.477 1.277.315.289.758.43 1.328.43 1.188 0 1.779-.578 1.779-1.733 0-1.21-.604-1.815-1.805-1.815-.57 0-1.014.155-1.323.464-.302.316-.456.773-.456 1.377zM12.892 15.958c.356 0 .678.03.96.087l-.168 1.129a4.197 4.197 0 00-.88-.107c-.65 0-1.207.262-1.664.793-.463.53-.691 1.189-.691 1.975v4.314H9.234v-8.043h1.007l.14 1.491h.061c.296-.523.658-.927 1.08-1.209a2.3 2.3 0 011.37-.43zM16.502 16.106v5.22c0 .66.148 1.143.45 1.466.295.322.765.484 1.403.484.839 0 1.456-.228 1.845-.693.39-.456.584-1.21.584-2.25v-4.227h1.215v8.043h-1.007l-.174-1.081h-.067a2.409 2.409 0 01-1.04.906 3.517 3.517 0 01-1.517.316c-.98 0-1.712-.235-2.195-.699-.483-.463-.731-1.21-.731-2.23v-5.262h1.235zM28.307 24.297c-.523 0-1-.094-1.436-.289a2.683 2.683 0 01-1.087-.894h-.087c.06.47.087.914.087 1.337v3.313h-1.215V16.106h.987l.167 1.102h.06c.316-.443.679-.76 1.095-.954a3.33 3.33 0 011.43-.296c1.066 0 1.885.363 2.469 1.095.577.732.865 1.754.865 3.071 0 1.324-.295 2.345-.885 3.077-.584.733-1.403 1.096-2.45 1.096zm-.174-7.304c-.82 0-1.416.228-1.779.685-.362.458-.557 1.176-.564 2.17v.27c0 1.128.188 1.941.564 2.425.376.484.98.733 1.812.733.691 0 1.235-.283 1.631-.847.396-.565.59-1.337.59-2.325 0-1-.194-1.774-.59-2.305-.396-.537-.953-.806-1.664-.806zM40.702 20.124c0 1.31-.329 2.338-.986 3.07-.658.74-1.57 1.103-2.731 1.103-.719 0-1.356-.168-1.913-.504-.557-.336-.987-.82-1.289-1.451-.302-.632-.456-1.371-.456-2.218 0-1.31.329-2.332.98-3.064.657-.732 1.563-1.095 2.724-1.095 1.121 0 2.02.376 2.678 1.122.664.746.993 1.754.993 3.037zm-6.12 0c0 1.028.208 1.808.617 2.352.41.537 1.014.806 1.812.806.799 0 1.403-.269 1.812-.806.416-.537.618-1.317.618-2.352 0-1.02-.208-1.8-.618-2.332-.416-.53-1.02-.793-1.832-.793-.798 0-1.396.263-1.805.786-.403.518-.604 1.298-.604 2.34z" fill="white"/></svg>