<svg version="1.1" id="Camada_1" xmlns="http://www.w3.org/2000/svg" x="0" y="0" viewBox="0 0 100 100" xml:space="preserve"><style>.st0{fill:#667176}</style><path class="st0" d="M50 2.5C23.8 2.5 2.5 23.8 2.5 50S23.8 97.5 50 97.5c8.9 0 17.1-2.4 24.2-6.6.2-2.1.1-4.9-.2-6.7-1.2-6.6-4.9-11.2-11.5-14.4-5.3-2.5-11.4-3.7-20.1-3.8l-4.6-.1-.5-.9c-.4-.8-.4-1-.3-1.2.1-.1 8-9.1 17.5-19.9l17.3-19.7h-49v-2.6h52.8v2.1L58.2 43.4 40.8 63.3l2.7.1c13.3.5 23.5 4 28.6 10.1 3 3.6 4.6 7.6 5 12.8.1.8.1 1.8.1 2.7 12.3-8.6 20.3-22.9 20.3-39C97.5 23.8 76.2 2.5 50 2.5zM202.2 82.1l-.1.3"/></svg>