<svg version="1.1" id="Layer_1" xmlns="http://www.w3.org/2000/svg" x="0" y="0" viewBox="0 0 40 40" xml:space="preserve"><style>.st1{fill:#338af3}</style><circle cx="20" cy="20" r="20" fill="#f0f0f0"/><path id="SVGCleanerId_0" class="st1" d="M20 14.8h19.3c-.5-1.9-1.3-3.6-2.2-5.2H20v5.2z"/><path class="st1" d="M7.6 35.7h24.9c1.8-1.5 3.4-3.2 4.6-5.2H2.9c1.3 1.9 2.8 3.7 4.7 5.2zM20 0v4.3h12.4C29 1.6 24.7 0 20 0z"/><path id="SVGCleanerId_0_1_" class="st1" d="M20 14.8h19.3c-.5-1.9-1.3-3.6-2.2-5.2H20v5.2z"/><path class="st1" d="M0 20c0 1.8.2 3.6.7 5.2h38.6c.4-1.7.7-3.4.7-5.2H0z"/><path fill="#ffda44" d="M17.4 11.7l-2.5 1.2 1.3 2.3-2.6-.5-.3 2.7-1.9-2-1.8 2-.4-2.7-2.6.5 1.3-2.3-2.5-1.2 2.5-1.1-1.3-2.4 2.6.5.4-2.7 1.8 2 1.9-2 .3 2.7 2.6-.5-1.3 2.4z"/></svg>